<svg width="346" height="184" viewBox="0 0 346 184" fill="none" xmlns="http://www.w3.org/2000/svg">
<path d="M71.9531 35.6852C72.9175 33.0976 75.7969 31.7818 78.3845 32.7462C80.972 33.7106 82.2878 36.59 81.3234 39.1776L38.1165 155.105C37.1521 157.692 34.2727 159.008 31.6852 158.044C29.0976 157.079 27.7818 154.2 28.7462 151.612L71.9531 35.6852Z" fill="#E40E0E"/>
<path d="M90.0434 102.038L90.0343 112.038L48 112L48.0091 102L90.0434 102.038Z" fill="#E40E0E"/>
<path d="M71.7629 39.2047C70.7893 36.6206 72.0948 33.7365 74.6789 32.7629C77.263 31.7893 80.1471 33.0948 81.1207 35.6789L119.509 137.564C120.482 140.148 119.177 143.032 116.593 144.006C114.008 144.98 111.124 143.674 110.151 141.09L71.7629 39.2047Z" fill="#E40E0E"/>
<path d="M328.735 149.902C331.496 149.91 333.728 152.155 333.72 154.917C333.711 157.678 331.466 159.91 328.705 159.902L34 159.015C31.2386 159.007 29.0067 156.761 29.015 154C29.0233 151.239 31.2686 149.007 34.03 149.015L328.735 149.902Z" fill="#E40E0E"/>
<path d="M127.031 132.172L140.906 89.2812H149.766L131.531 140H125.719L127.031 132.172ZM115.453 89.2812L129.75 132.406L130.734 140H124.922L106.547 89.2812H115.453Z" fill="white"/>
<path d="M178.5 140.938C174.969 140.938 171.766 140.344 168.891 139.156C166.047 137.938 163.594 136.234 161.531 134.047C159.5 131.859 157.938 129.266 156.844 126.266C155.75 123.266 155.203 119.984 155.203 116.422V114.453C155.203 110.328 155.812 106.656 157.031 103.438C158.25 100.188 159.906 97.4375 162 95.1875C164.094 92.9375 166.469 91.2344 169.125 90.0781C171.781 88.9219 174.531 88.3438 177.375 88.3438C181 88.3438 184.125 88.9688 186.75 90.2188C189.406 91.4688 191.578 93.2188 193.266 95.4688C194.953 97.6875 196.203 100.312 197.016 103.344C197.828 106.344 198.234 109.625 198.234 113.188V117.078H160.359V110H189.562V109.344C189.438 107.094 188.969 104.906 188.156 102.781C187.375 100.656 186.125 98.9062 184.406 97.5312C182.688 96.1562 180.344 95.4688 177.375 95.4688C175.406 95.4688 173.594 95.8906 171.938 96.7344C170.281 97.5469 168.859 98.7656 167.672 100.391C166.484 102.016 165.562 104 164.906 106.344C164.25 108.688 163.922 111.391 163.922 114.453V116.422C163.922 118.828 164.25 121.094 164.906 123.219C165.594 125.312 166.578 127.156 167.859 128.75C169.172 130.344 170.75 131.594 172.594 132.5C174.469 133.406 176.594 133.859 178.969 133.859C182.031 133.859 184.625 133.234 186.75 131.984C188.875 130.734 190.734 129.062 192.328 126.969L197.578 131.141C196.484 132.797 195.094 134.375 193.406 135.875C191.719 137.375 189.641 138.594 187.172 139.531C184.734 140.469 181.844 140.938 178.5 140.938Z" fill="white"/>
<path d="M237.891 126.547C237.891 125.297 237.609 124.141 237.047 123.078C236.516 121.984 235.406 121 233.719 120.125C232.062 119.219 229.562 118.438 226.219 117.781C223.406 117.188 220.859 116.484 218.578 115.672C216.328 114.859 214.406 113.875 212.812 112.719C211.25 111.562 210.047 110.203 209.203 108.641C208.359 107.078 207.938 105.25 207.938 103.156C207.938 101.156 208.375 99.2656 209.25 97.4844C210.156 95.7031 211.422 94.125 213.047 92.75C214.703 91.375 216.688 90.2969 219 89.5156C221.312 88.7344 223.891 88.3438 226.734 88.3438C230.797 88.3438 234.266 89.0625 237.141 90.5C240.016 91.9375 242.219 93.8594 243.75 96.2656C245.281 98.6406 246.047 101.281 246.047 104.188H237.375C237.375 102.781 236.953 101.422 236.109 100.109C235.297 98.7656 234.094 97.6562 232.5 96.7812C230.938 95.9062 229.016 95.4688 226.734 95.4688C224.328 95.4688 222.375 95.8438 220.875 96.5938C219.406 97.3125 218.328 98.2344 217.641 99.3594C216.984 100.484 216.656 101.672 216.656 102.922C216.656 103.859 216.812 104.703 217.125 105.453C217.469 106.172 218.062 106.844 218.906 107.469C219.75 108.062 220.938 108.625 222.469 109.156C224 109.688 225.953 110.219 228.328 110.75C232.484 111.688 235.906 112.812 238.594 114.125C241.281 115.438 243.281 117.047 244.594 118.953C245.906 120.859 246.562 123.172 246.562 125.891C246.562 128.109 246.094 130.141 245.156 131.984C244.25 133.828 242.922 135.422 241.172 136.766C239.453 138.078 237.391 139.109 234.984 139.859C232.609 140.578 229.938 140.938 226.969 140.938C222.5 140.938 218.719 140.141 215.625 138.547C212.531 136.953 210.188 134.891 208.594 132.359C207 129.828 206.203 127.156 206.203 124.344H214.922C215.047 126.719 215.734 128.609 216.984 130.016C218.234 131.391 219.766 132.375 221.578 132.969C223.391 133.531 225.188 133.812 226.969 133.812C229.344 133.812 231.328 133.5 232.922 132.875C234.547 132.25 235.781 131.391 236.625 130.297C237.469 129.203 237.891 127.953 237.891 126.547Z" fill="white"/>
<path d="M279.188 89.2812V95.9375H251.766V89.2812H279.188ZM261.047 76.9531H269.719V127.438C269.719 129.156 269.984 130.453 270.516 131.328C271.047 132.203 271.734 132.781 272.578 133.062C273.422 133.344 274.328 133.484 275.297 133.484C276.016 133.484 276.766 133.422 277.547 133.297C278.359 133.141 278.969 133.016 279.375 132.922L279.422 140C278.734 140.219 277.828 140.422 276.703 140.609C275.609 140.828 274.281 140.938 272.719 140.938C270.594 140.938 268.641 140.516 266.859 139.672C265.078 138.828 263.656 137.422 262.594 135.453C261.562 133.453 261.047 130.766 261.047 127.391V76.9531Z" fill="white"/>
<path d="M319.266 131.328V105.219C319.266 103.219 318.859 101.484 318.047 100.016C317.266 98.5156 316.078 97.3594 314.484 96.5469C312.891 95.7344 310.922 95.3281 308.578 95.3281C306.391 95.3281 304.469 95.7031 302.812 96.4531C301.188 97.2031 299.906 98.1875 298.969 99.4062C298.062 100.625 297.609 101.938 297.609 103.344H288.938C288.938 101.531 289.406 99.7344 290.344 97.9531C291.281 96.1719 292.625 94.5625 294.375 93.125C296.156 91.6562 298.281 90.5 300.75 89.6562C303.25 88.7812 306.031 88.3438 309.094 88.3438C312.781 88.3438 316.031 88.9688 318.844 90.2188C321.688 91.4688 323.906 93.3594 325.5 95.8906C327.125 98.3906 327.938 101.531 327.938 105.312V128.938C327.938 130.625 328.078 132.422 328.359 134.328C328.672 136.234 329.125 137.875 329.719 139.25V140H320.672C320.234 139 319.891 137.672 319.641 136.016C319.391 134.328 319.266 132.766 319.266 131.328ZM320.766 109.25L320.859 115.344H312.094C309.625 115.344 307.422 115.547 305.484 115.953C303.547 116.328 301.922 116.906 300.609 117.688C299.297 118.469 298.297 119.453 297.609 120.641C296.922 121.797 296.578 123.156 296.578 124.719C296.578 126.312 296.938 127.766 297.656 129.078C298.375 130.391 299.453 131.438 300.891 132.219C302.359 132.969 304.156 133.344 306.281 133.344C308.938 133.344 311.281 132.781 313.312 131.656C315.344 130.531 316.953 129.156 318.141 127.531C319.359 125.906 320.016 124.328 320.109 122.797L323.812 126.969C323.594 128.281 323 129.734 322.031 131.328C321.062 132.922 319.766 134.453 318.141 135.922C316.547 137.359 314.641 138.562 312.422 139.531C310.234 140.469 307.766 140.938 305.016 140.938C301.578 140.938 298.562 140.266 295.969 138.922C293.406 137.578 291.406 135.781 289.969 133.531C288.562 131.25 287.859 128.703 287.859 125.891C287.859 123.172 288.391 120.781 289.453 118.719C290.516 116.625 292.047 114.891 294.047 113.516C296.047 112.109 298.453 111.047 301.266 110.328C304.078 109.609 307.219 109.25 310.688 109.25H320.766Z" fill="white"/>
<path d="M90 102L93.4641 112.013H86.5359L90 102Z" fill="#E40E0E"/>
</svg>
